<svg width="30" height="20" viewBox="0 0 30 20" fill="none" xmlns="http://www.w3.org/2000/svg">
<g filter="url(#filter0_d_7_33)">
<path d="M4 1.875C4 1.51033 4.14487 1.16059 4.40273 0.902728C4.66059 0.644866 5.01033 0.5 5.375 0.5H24.625C24.9897 0.5 25.3394 0.644866 25.5973 0.902728C25.8551 1.16059 26 1.51033 26 1.875C26 2.23967 25.8551 2.58941 25.5973 2.84727C25.3394 3.10513 24.9897 3.25 24.625 3.25H5.375C5.01033 3.25 4.66059 3.10513 4.40273 2.84727C4.14487 2.58941 4 2.23967 4 1.875Z" fill="#070648"/>
<path d="M5.375 8.75C5.01033 8.75 4.66059 8.89487 4.40273 9.15273C4.14487 9.41059 4 9.76033 4 10.125C4 10.4897 4.14487 10.8394 4.40273 11.0973C4.66059 11.3551 5.01033 11.5 5.375 11.5H16.375C16.7397 11.5 17.0894 11.3551 17.3473 11.0973C17.6051 10.8394 17.75 10.4897 17.75 10.125C17.75 9.76033 17.6051 9.41059 17.3473 9.15273C17.0894 8.89487 16.7397 8.75 16.375 8.75H5.375Z" fill="#070648"/>
</g>
<defs>
<filter id="filter0_d_7_33" x="0" y="0.5" width="30" height="19" filterUnits="userSpaceOnUse" color-interpolation-filters="sRGB">
<feFlood flood-opacity="0" result="BackgroundImageFix"/>
<feColorMatrix in="SourceAlpha" type="matrix" values="0 0 0 0 0 0 0 0 0 0 0 0 0 0 0 0 0 0 127 0" result="hardAlpha"/>
<feOffset dy="4"/>
<feGaussianBlur stdDeviation="2"/>
<feComposite in2="hardAlpha" operator="out"/>
<feColorMatrix type="matrix" values="0 0 0 0 0 0 0 0 0 0 0 0 0 0 0 0 0 0 0.25 0"/>
<feBlend mode="normal" in2="BackgroundImageFix" result="effect1_dropShadow_7_33"/>
<feBlend mode="normal" in="SourceGraphic" in2="effect1_dropShadow_7_33" result="shape"/>
</filter>
</defs>
</svg>
